<svg xmlns="http://www.w3.org/2000/svg" viewBox="0 0 1000 1000"><g data-name="illustration"><g data-name="Real Estate"><g data-name="plane"><path style="fill:#6c32ad" d="m808.94 503.97 54.56-107.81-28.57 17.08-48.3 60.18 22.31 30.55z"/><path d="m834.93 413.24 28.57-17.08L808.94 504l-22.31-30.55 48.3-60.18m-1.62-2.52a3.37 3.37 0 0 0-.72.64l-48.3 60.18a3 3 0 0 0-.08 3.65l22.31 30.55a3 3 0 0 0 5.1-.41l54.56-107.81a3 3 0 0 0-4.22-3.93l-28.57 17.08-.08.05Z"/><path style="fill:#d9cfff" d="m754.03 471.96 118.32-90.74-12.85 96.79-53.8-3.66 40.96-63.38-60.03 62.45-32.6-1.46z"/><path d="M872.35 381.22 859.5 478l-53.8-3.66 41-63.38-60 62.45L754 472l118.32-90.74m-1.63-2.52-.2.14-118.29 90.7a3 3 0 0 0 1.7 5.37l32.6 1.47a3.06 3.06 0 0 0 1.75-.48 2.54 2.54 0 0 0 .54-.44l38.43-40-24 37.2a3 3 0 0 0 2.32 4.62L859.3 481a3 3 0 0 0 3.17-2.59l12.85-96.79a3 3 0 0 0-4.6-2.92Zm3.25 5Z"/><path d="M850.51 472.24a2.46 2.46 0 0 1-1.88.34 2.5 2.5 0 0 1-1.92-3L857 422.05a2.5 2.5 0 0 1 4.88 1.06l-10.28 47.56a2.46 2.46 0 0 1-1.09 1.57Z" style="fill:#fff"/></g><g data-name="sheets"><path d="m241 581-90.44-149.08a47.27 47.27 0 0 1-5.42-37.12 47.29 47.29 0 0 1 21.28-28.21l112.82-67.81a7.34 7.34 0 0 1 10.12 2.57l125.26 212.86a7.35 7.35 0 0 1-5.85 11.07Z" style="fill:#fff"/><path d="M283 297.73a7.33 7.33 0 0 1 6.34 3.62l125.28 212.86a7.35 7.35 0 0 1-5.85 11.07L241 581l-90.44-149.08a47.26 47.26 0 0 1 15.86-65.33l112.82-67.81a7.35 7.35 0 0 1 3.78-1m0-3a10.31 10.31 0 0 0-5.32 1.48L164.88 364A50.25 50.25 0 0 0 148 433.5l90.43 149.06A3 3 0 0 0 241 584a3.14 3.14 0 0 0 .95-.15l167.43-55.62a10.36 10.36 0 0 0 7.83-15.54L292 299.83a10.38 10.38 0 0 0-8.93-5.1Z"/><path d="M141.76 394.81a47.23 47.23 0 0 0 5.42 37.12l8.69 14.07c.15-14.19 21.64-22.52 21.64-22.52-26.69-22.21-21.83-45.41-18.7-54a47.19 47.19 0 0 0-17.05 25.33Z" style="fill:#d9cfff"/><path d="M153.61 378.53c-1.35 11.28.9 27.85 18.45 44.17-5.21 2.68-13.67 8-17.37 15.69l-5-8a44.18 44.18 0 0 1 3.88-51.82m5.2-9a47.24 47.24 0 0 0-11.63 62.45l8.73 13.98c.15-14.19 21.64-22.52 21.64-22.52-26.69-22.21-21.83-45.41-18.7-54Z"/><rect x="188.34" y="418" width="35.83" height="35.83" rx="8.51" transform="rotate(-29.36 206.212 435.873)" style="fill:#d9cfff"/><path d="M202.68 458.74a9.74 9.74 0 0 1-2.71-.38 9.93 9.93 0 0 1-6-4.73l-9.22-16.39a10 10 0 0 1 3.82-13.64l16.39-9.22a10 10 0 0 1 13.64 3.82l9.22 16.4a10 10 0 0 1-3.82 13.63l-16.39 9.22a10 10 0 0 1-4.93 1.29Zm7.15-42.64a6.94 6.94 0 0 0-3.42.9L190 426.22a7 7 0 0 0-2.67 9.55l9.22 16.39a7 7 0 0 0 9.54 2.68l16.4-9.23a7 7 0 0 0 2.67-9.54l-9.16-16.4a7 7 0 0 0-6.17-3.57Z"/><rect x="173.97" y="355.61" width="115.85" height="16.82" rx="8.41" transform="rotate(-29.36 231.857 363.986)" style="fill:#d9cfff"/><path d="M188.76 398.21a9.91 9.91 0 0 1-4.88-18.55l86.31-48.55a9.91 9.91 0 1 1 9.72 17.28l-86.31 48.54a9.77 9.77 0 0 1-4.84 1.28ZM275 332.84a6.89 6.89 0 0 0-3.38.89l-86.31 48.54a6.91 6.91 0 0 0 6.78 12.05l86.31-48.55a6.91 6.91 0 0 0-3.4-12.93Zm4.13 14.24Z"/><rect x="215.69" y="465.75" width="35.83" height="35.83" rx="8.51" transform="rotate(-29.36 233.556 483.624)" style="fill:#d9cfff"/><path d="M230 506.49a10 10 0 0 1-8.74-5.1L212.07 485a10 10 0 0 1 3.82-13.63l16.39-9.23a10 10 0 0 1 13.64 3.86l9.22 16.4a10 10 0 0 1-3.82 13.6l-16.4 9.22a9.94 9.94 0 0 1-4.92 1.27Zm7.15-42.64a7 7 0 0 0-3.43.9L217.36 474a7 7 0 0 0-2.68 9.55l9.23 16.39a7 7 0 0 0 9.54 2.68l16.4-9.23a7 7 0 0 0 2.67-9.54l-9.22-16.4a7 7 0 0 0-6.12-3.57Zm13.41 30.82Z"/><path style="fill:#d9cfff" d="m237.65 417.77 70.38-39.59"/><path d="M237.65 419.27a1.52 1.52 0 0 1-1.31-.77 1.5 1.5 0 0 1 .57-2l70.38-39.59a1.5 1.5 0 1 1 1.47 2.62l-70.38 39.59a1.47 1.47 0 0 1-.73.15Z"/><path style="fill:#d9cfff" d="m264.83 466.1 70.38-39.58"/><path d="M264.84 467.6a1.48 1.48 0 0 1-1.31-.76 1.51 1.51 0 0 1 .57-2l70.38-39.58a1.5 1.5 0 1 1 1.47 2.61l-70.38 39.59a1.5 1.5 0 0 1-.73.14Z"/><path style="fill:#d9cfff" d="m195.75 436.45 12.54 7.07 1.3-19.64"/><path d="M208.29 445a1.52 1.52 0 0 1-.74-.2L195 437.75a1.5 1.5 0 0 1 1.47-2.61L207 441l1.14-17.26a1.5 1.5 0 0 1 3 .2l-1.29 19.63a1.52 1.52 0 0 1-.79 1.23 1.47 1.47 0 0 1-.77.2Z"/><path style="fill:#d9cfff" d="m222.29 485.1 12.54 3.69 1.97-17.61"/><path d="M234.83 490.29a1.59 1.59 0 0 1-.43-.06l-12.53-3.69a1.5 1.5 0 1 1 .85-2.88l10.82 3.18 1.77-15.84a1.5 1.5 0 1 1 3 .34l-2 17.6a1.52 1.52 0 0 1-.66 1.09 1.55 1.55 0 0 1-.82.26Z"/></g><g data-name="hand"><path d="M352.5 432.5s-117 21-111.74 170.14l102.6 25.71 25.86-77.25Z" style="fill:#ffcdb2"/><path d="m344.34 630.15-105-26.33v-1.13c-1.21-34.25 4-64.58 15.37-90.16a142.93 142.93 0 0 1 39.07-52c28.56-23.87 58.24-29.41 58.54-29.47l1.53-.27 17 120.49-.11.33Zm-102.12-28.69 100.16 25.1 25.3-75.6-16.44-116.66c-6.35 1.46-31.43 8.24-55.73 28.59-25.65 21.48-55.65 62.93-53.29 138.57Z" style="fill:#1d1e1b"/><path d="m241.38 601.7-8 32.39S169.5 609.5 103.5 701.5c0 0 49.51 92.6 193 158 0 0 85-110 48.71-195.12l.68-36.81Z" style="fill:#ffad00"/><path d="M296.5 861a1.37 1.37 0 0 1-.62-.14C221.54 827 172.86 785.69 145.11 757c-30.11-31.1-42.81-54.56-42.93-54.79a1.5 1.5 0 0 1 .1-1.58c34.37-47.91 68.23-63.86 90.58-68.8 20.27-4.48 34.75-1.09 39.43.32l7.63-30.81a1.53 1.53 0 0 1 .68-.93 1.51 1.51 0 0 1 1.14-.17l104.51 25.87a1.5 1.5 0 0 1 1.14 1.49l-.67 36.48c18.77 44.4 4.45 95.39-10.88 130.38a351.8 351.8 0 0 1-38.15 66 1.53 1.53 0 0 1-1.19.54ZM105.28 701.6c2.48 4.36 15.35 25.83 42.09 53.43 27.42 28.32 75.43 69 148.66 102.6a351.44 351.44 0 0 0 37.09-64.43c15.11-34.51 29.24-84.77 10.71-128.24a1.58 1.58 0 0 1-.12-.61l.66-35.61-101.9-25.23-7.65 30.94a1.53 1.53 0 0 1-.77 1 1.51 1.51 0 0 1-1.23.07c-.15-.06-16-6-39.53-.68-21.66 4.81-54.47 20.33-88.01 66.76Z" style="fill:#1d1d1b"/><circle cx="204.62" cy="698.95" r="9.44" style="fill:#ffc140"/><circle cx="304.62" cy="720.95" r="9.44" style="fill:#ffc140"/><circle cx="287.51" cy="800.25" r="9.44" style="fill:#ffc140"/><path d="m343.3 664.33.65-35.62-101.13-25-7.74 31.26c3.22 3.6 38.44 40.86 108.35 29.45Z" style="fill:#e89d00"/></g><g data-name="window"><rect x="327.18" y="250" width="360.68" height="470.78" rx="43.59" style="fill:#d9cfff"/><path d="M644.27 722.28h-273.5a45.14 45.14 0 0 1-45.09-45.09v-383.6a45.14 45.14 0 0 1 45.09-45.09h273.5a45.14 45.14 0 0 1 45.09 45.09v383.6a45.14 45.14 0 0 1-45.09 45.09ZM370.77 251.5a42.14 42.14 0 0 0-42.09 42.09v383.6a42.14 42.14 0 0 0 42.09 42.09h273.5a42.14 42.14 0 0 0 42.09-42.09v-383.6a42.14 42.14 0 0 0-42.09-42.09Z"/><rect x="348.82" y="278.09" width="317.4" height="386.49" rx="37.05" style="fill:#fff"/><path d="M629.17 666.09h-243.3a38.59 38.59 0 0 1-38.55-38.55v-312.4a38.6 38.6 0 0 1 38.55-38.55h243.3a38.6 38.6 0 0 1 38.55 38.55v312.4a38.59 38.59 0 0 1-38.55 38.55Zm-243.3-386.5a35.59 35.59 0 0 0-35.55 35.55v312.4a35.59 35.59 0 0 0 35.55 35.55h243.3a35.59 35.59 0 0 0 35.55-35.55v-312.4a35.59 35.59 0 0 0-35.55-35.55Z" style="fill:#1d1d1b"/><circle cx="507.52" cy="694.58" r="12.15" style="fill:#d9cfff"/><path d="M507.52 708.23a13.65 13.65 0 1 1 13.65-13.65 13.66 13.66 0 0 1-13.65 13.65Zm0-24.3a10.65 10.65 0 1 0 10.65 10.65 10.67 10.67 0 0 0-10.65-10.65Z"/><path d="M566.53 563.22H450a7.77 7.77 0 0 1-7.77-7.76V452a7.77 7.77 0 0 1 2.56-5.76l58.65-52.95a7.77 7.77 0 0 1 10.44 0l57.91 52.92a7.76 7.76 0 0 1 2.51 5.79v103.46a7.77 7.77 0 0 1-7.77 7.76Z" style="fill:#d9cfff"/><path d="M566.53 564.72H450a9.28 9.28 0 0 1-9.27-9.26V452a9.28 9.28 0 0 1 3.06-6.87l58.65-52.95a9.22 9.22 0 0 1 12.46 0l57.9 52.92a9.26 9.26 0 0 1 3 6.83v103.53a9.28 9.28 0 0 1-9.27 9.26Zm-57.9-171.93a6.22 6.22 0 0 0-4.2 1.63l-58.65 52.94a6.26 6.26 0 0 0-2.07 4.65v103.45a6.27 6.27 0 0 0 6.27 6.26h116.55a6.27 6.27 0 0 0 6.27-6.26V452a6.29 6.29 0 0 0-2-4.62l-57.91-52.92a6.23 6.23 0 0 0-4.26-1.67Z"/><path d="M424.89 474a12.92 12.92 0 0 1-9.34-3.89 11.26 11.26 0 0 1 .92-16.63L501 382.11a13.21 13.21 0 0 1 16.91.07l83 71.37a11.25 11.25 0 0 1 .76 16.63 13.15 13.15 0 0 1-17.75.72l-74.6-64.13-76 64.2a13 13 0 0 1-8.43 3.03Z" style="fill:#6c32ad"/><path d="M509.42 379.08a13.07 13.07 0 0 1 8.5 3.1l83 71.37a11.25 11.25 0 0 1 .76 16.63 13.15 13.15 0 0 1-17.75.72l-74.6-64.13-76 64.2a13.16 13.16 0 0 1-17.74-.86 11.26 11.26 0 0 1 .92-16.63L501 382.11a13 13 0 0 1 8.41-3m0-3a16 16 0 0 0-10.34 3.74l-84.54 71.36a14.27 14.27 0 0 0-1.16 21 16.17 16.17 0 0 0 21.85 1.09l74.1-62.56L582 473.18a16.18 16.18 0 0 0 21.86-.9 14.22 14.22 0 0 0 4.14-10.66 14.4 14.4 0 0 0-5.1-10.35l-83-71.36a16 16 0 0 0-10.45-3.83Z" style="fill:#1d1e1b"/><path d="M509 498.3h2.3a20.11 20.11 0 0 1 20.11 20.11v44.43h-42.49v-44.43A20.11 20.11 0 0 1 509 498.3Z" style="fill:#6c32ad"/><path d="M532.94 564.34h-45.52v-45.93A21.63 21.63 0 0 1 509 496.8h2.3a21.63 21.63 0 0 1 21.61 21.61Zm-42.52-3h39.52v-42.93a18.63 18.63 0 0 0-18.61-18.61H509a18.63 18.63 0 0 0-18.61 18.61Z" style="fill:#1d1e1b"/><circle cx="508.28" cy="461.47" r="18.98" style="fill:#6c32ad"/><path d="M508.28 482a20.48 20.48 0 1 1 20.48-20.48A20.5 20.5 0 0 1 508.28 482Zm0-38a17.48 17.48 0 1 0 17.48 17.48A17.5 17.5 0 0 0 508.28 444Z" style="fill:#1d1e1b"/><path d="M508.66 482.33a1.5 1.5 0 0 1-1.5-1.5v-38a1.5 1.5 0 0 1 3 0v38a1.5 1.5 0 0 1-1.5 1.5Z" style="fill:#1d1d1b"/><path d="M527.26 463h-38a1.5 1.5 0 1 1 0-3h38a1.5 1.5 0 0 1 0 3Zm-48.59 31.86H443a1.5 1.5 0 0 1 0-3h35.69a1.5 1.5 0 0 1 0 3Zm-6.08 13.67h-18.22a1.5 1.5 0 0 1 0-3h18.22a1.5 1.5 0 0 1 0 3Z" style="fill:#1d1d1b"/><path d="M462 507.77a1.5 1.5 0 0 1-1.5-1.5v-12.15a1.5 1.5 0 0 1 3 0v12.15a1.5 1.5 0 0 1-1.5 1.5Zm112.34 37.97h-35.69a1.5 1.5 0 1 1 0-3h35.69a1.5 1.5 0 0 1 0 3Zm-6.07-13.67H550a1.5 1.5 0 0 1 0-3h18.23a1.5 1.5 0 0 1 0 3Z" style="fill:#1d1d1b"/><path d="M557.64 545a1.5 1.5 0 0 1-1.5-1.5v-12.17a1.5 1.5 0 0 1 3 0v12.15a1.5 1.5 0 0 1-1.5 1.52Zm-94.16 6.81H443a1.5 1.5 0 0 1 0-3h20.5a1.5 1.5 0 0 1 0 3ZM563 459.17h-19a1.5 1.5 0 0 1 0-3h19a1.5 1.5 0 0 1 0 3Z" style="fill:#1d1d1b"/><path d="m411.7 617.34-6.7-3.59a2.64 2.64 0 0 0-2.5 0l-6.71 3.61a2.65 2.65 0 0 1-3.86-2.8l1.34-7.5a2.65 2.65 0 0 0-.78-2.37l-5.5-5.27a2.64 2.64 0 0 1 1.46-4.53l7.55-1a2.64 2.64 0 0 0 2-1.47l3.31-6.86a2.64 2.64 0 0 1 4.76 0l3.33 6.86a2.63 2.63 0 0 0 2 1.46l7.55 1a2.65 2.65 0 0 1 1.48 4.53l-5.43 5.25a2.63 2.63 0 0 0-.77 2.38l1.36 7.49a2.65 2.65 0 0 1-3.89 2.81Z" style="fill:#ffad00"/><path d="M394.51 619.18a4.19 4.19 0 0 1-2.43-.79 4.13 4.13 0 0 1-1.65-4.09l1.34-7.5a1.14 1.14 0 0 0-.34-1l-5.5-5.27a4.14 4.14 0 0 1 2.3-7.1l7.54-1a1.17 1.17 0 0 0 .88-.64l3.31-6.86a4.09 4.09 0 0 1 3.72-2.35 4.12 4.12 0 0 1 3.73 2.34l3.33 6.85a1.14 1.14 0 0 0 .87.64l7.55 1a4.15 4.15 0 0 1 2.32 7.1l-5.48 5.23a1.16 1.16 0 0 0-.34 1l1.36 7.5a4.15 4.15 0 0 1-6 4.39l-6.72-3.59a1.15 1.15 0 0 0-1.08 0l-6.71 3.61a4.21 4.21 0 0 1-2 .53Zm9.18-33.67a1.12 1.12 0 0 0-1 .65l-3.34 6.84a4.12 4.12 0 0 1-3.16 2.31l-7.55 1a1.09 1.09 0 0 0-.93.78 1.12 1.12 0 0 0 .29 1.18l5.51 5.26a4.15 4.15 0 0 1 1.21 3.73l-1.33 7.5a1.12 1.12 0 0 0 .45 1.13 1.15 1.15 0 0 0 1.22.08l6.71-3.61a4.14 4.14 0 0 1 3.91 0l6.72 3.64a1.11 1.11 0 0 0 1.22-.08 1.13 1.13 0 0 0 .45-1.13l-1.36-7.5a4.11 4.11 0 0 1 1.21-3.72l5.49-5.29a1.09 1.09 0 0 0 .29-1.18 1.11 1.11 0 0 0-.93-.78l-7.55-1a4.13 4.13 0 0 1-3.17-2.3l-3.33-6.85a1.12 1.12 0 0 0-1.03-.66Z" style="fill:#1d1d1b"/><path d="m464.85 617.34-6.72-3.59a2.64 2.64 0 0 0-2.5 0l-6.71 3.61a2.65 2.65 0 0 1-3.86-2.8l1.34-7.5a2.65 2.65 0 0 0-.78-2.37l-5.5-5.27a2.64 2.64 0 0 1 1.46-4.53l7.55-1a2.62 2.62 0 0 0 2-1.47l3.31-6.86a2.64 2.64 0 0 1 4.76 0l3.33 6.86a2.67 2.67 0 0 0 2 1.46l7.55 1a2.65 2.65 0 0 1 1.48 4.53l-5.49 5.28a2.63 2.63 0 0 0-.77 2.38l1.36 7.49a2.65 2.65 0 0 1-3.81 2.78Z" style="fill:#ffad00"/><path d="M447.66 619.18a4.19 4.19 0 0 1-2.43-.79 4.12 4.12 0 0 1-1.64-4.09l1.33-7.5a1.16 1.16 0 0 0-.33-1l-5.51-5.27a4.14 4.14 0 0 1 2.3-7.1l7.55-1a1.15 1.15 0 0 0 .87-.64l3.31-6.86a4.09 4.09 0 0 1 3.73-2.35 4.12 4.12 0 0 1 3.73 2.34l3.33 6.85a1.15 1.15 0 0 0 .87.64l7.55 1a4.15 4.15 0 0 1 2.32 7.1l-5.49 5.28a1.13 1.13 0 0 0-.33 1l1.35 7.5a4.14 4.14 0 0 1-6 4.39l-6.72-3.59a1.15 1.15 0 0 0-1.08 0l-6.71 3.61a4.21 4.21 0 0 1-2 .48Zm9.18-33.67a1.13 1.13 0 0 0-1 .65L452.5 593a4.12 4.12 0 0 1-3.16 2.31l-7.55 1a1.09 1.09 0 0 0-.93.78 1.11 1.11 0 0 0 .3 1.18l5.5 5.26a4.16 4.16 0 0 1 1.22 3.73l-1.34 7.5A1.13 1.13 0 0 0 447 616a1.16 1.16 0 0 0 1.22.08l6.71-3.61a4.14 4.14 0 0 1 3.91 0l6.73 3.59a1.1 1.1 0 0 0 1.21-.08 1.12 1.12 0 0 0 .45-1.13l-1.35-7.5a4.13 4.13 0 0 1 1.2-3.72l5.49-5.29a1.12 1.12 0 0 0 .3-1.18 1.14 1.14 0 0 0-.94-.78l-7.55-1a4.15 4.15 0 0 1-3.17-2.3l-3.33-6.85a1.12 1.12 0 0 0-1.04-.72Z" style="fill:#1d1d1b"/><path d="m518 617.34-6.72-3.59a2.64 2.64 0 0 0-2.5 0l-6.71 3.61a2.65 2.65 0 0 1-3.86-2.8l1.34-7.5a2.62 2.62 0 0 0-.77-2.37l-5.51-5.27a2.64 2.64 0 0 1 1.47-4.53l7.54-1a2.62 2.62 0 0 0 2-1.47l3.31-6.86a2.64 2.64 0 0 1 4.76 0l3.33 6.86a2.67 2.67 0 0 0 2 1.46l7.54 1a2.64 2.64 0 0 1 1.48 4.53l-5.49 5.28a2.66 2.66 0 0 0-.77 2.38l1.36 7.49a2.65 2.65 0 0 1-3.8 2.78Z" style="fill:#ffad00"/><path d="M500.81 619.18a4.15 4.15 0 0 1-4.07-4.88l1.34-7.5a1.16 1.16 0 0 0-.34-1l-5.51-5.27a4.15 4.15 0 0 1 2.3-7.1l7.55-1a1.14 1.14 0 0 0 .87-.64l3.31-6.86a4.12 4.12 0 0 1 3.73-2.35 4.1 4.1 0 0 1 3.72 2.34l3.33 6.85a1.17 1.17 0 0 0 .88.64l7.55 1a4.15 4.15 0 0 1 2.31 7.1l-5.49 5.28a1.16 1.16 0 0 0-.33 1l1.36 7.5a4.15 4.15 0 0 1-6 4.39l-6.72-3.59a1.15 1.15 0 0 0-1.08 0l-6.71 3.61a4.18 4.18 0 0 1-2 .48Zm9.19-33.67a1.14 1.14 0 0 0-1 .65l-3.3 6.86a4.14 4.14 0 0 1-3.17 2.31l-7.55 1a1.14 1.14 0 0 0-.63 2l5.5 5.26a4.16 4.16 0 0 1 1.22 3.73l-1.34 7.5a1.12 1.12 0 0 0 .46 1.13 1.13 1.13 0 0 0 1.21.08l6.71-3.61a4.16 4.16 0 0 1 3.92 0l6.72 3.59a1.09 1.09 0 0 0 1.21-.08 1.12 1.12 0 0 0 .46-1.13l-1.42-7.5a4.13 4.13 0 0 1 1.2-3.72l5.49-5.29a1.12 1.12 0 0 0 .3-1.18 1.14 1.14 0 0 0-.94-.78l-7.55-1a4.15 4.15 0 0 1-3.17-2.3l-3.33-6.87a1.14 1.14 0 0 0-1-.65Z" style="fill:#1d1d1b"/><path d="m571.15 617.34-6.72-3.59a2.64 2.64 0 0 0-2.5 0l-6.71 3.61a2.64 2.64 0 0 1-3.85-2.8l1.33-7.5a2.62 2.62 0 0 0-.77-2.37l-5.51-5.27a2.65 2.65 0 0 1 1.47-4.53l7.55-1a2.66 2.66 0 0 0 2-1.47l3.3-6.86a2.65 2.65 0 0 1 4.77 0l3.32 6.86a2.67 2.67 0 0 0 2 1.46l7.55 1a2.65 2.65 0 0 1 1.48 4.53l-5.5 5.28a2.65 2.65 0 0 0-.76 2.38l1.35 7.49a2.65 2.65 0 0 1-3.8 2.78Z" style="fill:#ffad00"/><path d="M554 619.18a4.15 4.15 0 0 1-4.08-4.88l1.34-7.5a1.16 1.16 0 0 0-.34-1l-5.5-5.27a4.14 4.14 0 0 1 2.29-7.1l7.55-1a1.17 1.17 0 0 0 .88-.64l3.3-6.86a4.12 4.12 0 0 1 3.73-2.35 4.12 4.12 0 0 1 3.73 2.34l3.32 6.85a1.17 1.17 0 0 0 .88.64l7.55 1a4.15 4.15 0 0 1 2.32 7.1l-5.5 5.28a1.16 1.16 0 0 0-.33 1l1.36 7.5a4.15 4.15 0 0 1-6 4.39l-6.72-3.59a1.15 1.15 0 0 0-1.08 0l-6.72 3.61a4.17 4.17 0 0 1-1.98.48Zm9.18-33.67a1.12 1.12 0 0 0-1 .65l-3.37 6.84a4.14 4.14 0 0 1-3.17 2.31l-7.54 1a1.1 1.1 0 0 0-.94.78 1.13 1.13 0 0 0 .3 1.18l5.54 5.33a4.18 4.18 0 0 1 1.21 3.73l-1.34 7.5a1.12 1.12 0 0 0 .46 1.13 1.13 1.13 0 0 0 1.21.08l6.71-3.61a4.16 4.16 0 0 1 3.92 0l6.72 3.59a1.09 1.09 0 0 0 1.21-.08 1.12 1.12 0 0 0 .46-1.13l-1.36-7.5a4.13 4.13 0 0 1 1.2-3.72l5.5-5.29a1.11 1.11 0 0 0 .29-1.18 1.13 1.13 0 0 0-.93-.78l-7.55-1a4.16 4.16 0 0 1-3.18-2.3l-3.32-6.85a1.13 1.13 0 0 0-1.06-.68Z" style="fill:#1d1d1b"/><path d="m624.31 617.34-6.72-3.59a2.64 2.64 0 0 0-2.5 0l-6.71 3.61a2.65 2.65 0 0 1-3.86-2.8l1.34-7.5a2.65 2.65 0 0 0-.78-2.37l-5.5-5.27a2.64 2.64 0 0 1 1.46-4.53l7.55-1a2.64 2.64 0 0 0 2-1.47l3.31-6.86a2.64 2.64 0 0 1 4.76 0l3.33 6.86a2.63 2.63 0 0 0 2 1.46l7.55 1a2.65 2.65 0 0 1 1.48 4.53l-5.49 5.28a2.63 2.63 0 0 0-.77 2.38l1.36 7.49a2.65 2.65 0 0 1-3.81 2.78Z" style="fill:#ffad00"/><path d="M607.12 619.18a4.19 4.19 0 0 1-2.43-.79 4.13 4.13 0 0 1-1.69-4.09l1.34-7.5a1.14 1.14 0 0 0-.34-1l-5.5-5.27a4.14 4.14 0 0 1 2.3-7.1l7.54-1a1.17 1.17 0 0 0 .88-.64l3.31-6.86a4.09 4.09 0 0 1 3.72-2.35 4.12 4.12 0 0 1 3.73 2.34l3.33 6.85a1.14 1.14 0 0 0 .87.64l7.55 1a4.15 4.15 0 0 1 2.32 7.1l-5.49 5.28a1.16 1.16 0 0 0-.34 1l1.36 7.5a4.15 4.15 0 0 1-6 4.39l-6.72-3.59a1.15 1.15 0 0 0-1.08 0l-6.71 3.61a4.24 4.24 0 0 1-1.95.48Zm9.18-33.67a1.12 1.12 0 0 0-1 .65L612 593a4.12 4.12 0 0 1-3.17 2.31l-7.54 1a1.09 1.09 0 0 0-.93.78 1.12 1.12 0 0 0 .29 1.18l5.51 5.26a4.15 4.15 0 0 1 1.21 3.73l-1.33 7.5a1.12 1.12 0 0 0 .45 1.13 1.15 1.15 0 0 0 1.22.08l6.71-3.61a4.14 4.14 0 0 1 3.91 0L625 616a1.12 1.12 0 0 0 1.22-.08 1.13 1.13 0 0 0 .45-1.13l-1.36-7.5a4.15 4.15 0 0 1 1.21-3.72l5.49-5.29a1.15 1.15 0 0 0-.64-2l-7.55-1a4.13 4.13 0 0 1-3.17-2.3l-3.33-6.85a1.12 1.12 0 0 0-1.02-.62Z" style="fill:#1d1d1b"/><rect x="403.49" y="312.64" width="212.61" height="25.82" rx="12.12" style="fill:#d9cfff"/><path d="M604 340H415.62A13.64 13.64 0 0 1 402 326.34v-1.57a13.65 13.65 0 0 1 13.63-13.63H604a13.64 13.64 0 0 1 13.62 13.63v1.57A13.64 13.64 0 0 1 604 340Zm-188.38-25.86A10.64 10.64 0 0 0 405 324.77v1.57A10.64 10.64 0 0 0 415.62 337H604a10.63 10.63 0 0 0 10.62-10.62v-1.57A10.64 10.64 0 0 0 604 314.14Zm189.09 44.8h-192.1a1.5 1.5 0 0 1 0-3h192.1a1.5 1.5 0 0 1 0 3Zm6.08 205.78h-203.5a1.5 1.5 0 1 1 0-3h203.5a1.5 1.5 0 0 1 0 3Z"/><path d="M593.5 460a2.51 2.51 0 0 1-1.63-.6l-77-66a2.5 2.5 0 1 1 3.26-3.8l77 66a2.5 2.5 0 0 1-1.63 4.4Zm-28 62a2.5 2.5 0 0 1-2.5-2.5v-42a2.5 2.5 0 0 1 5 0v42a2.5 2.5 0 0 1-2.5 2.5Zm-102 156h-82a2.5 2.5 0 0 1 0-5h82a2.5 2.5 0 0 1 0 5Z" style="fill:#fff"/><path d="M519.5 228h-145a1.5 1.5 0 0 1 0-3h145a1.5 1.5 0 0 1 0 3Z" style="fill:#1d1d1b"/><path d="M338.16 298.5a2.5 2.5 0 0 1-2.5-2.5 38.74 38.74 0 0 1 38.69-38.69 2.5 2.5 0 0 1 0 5A33.73 33.73 0 0 0 340.66 296a2.5 2.5 0 0 1-2.5 2.5Z" style="fill:#fff"/></g><path d="M287.81 513.14s12.82-29.87 48.95-35.15 31.06 20.92 11.79 37.1-28.74 43.85-26.42 52.64" style="fill:#ffcdb2"/><path d="M322.12 569.23a1.51 1.51 0 0 1-1.45-1.12c-2.39-9.08 7.1-37.54 26.91-54.17 11.06-9.29 16.76-21.22 13.56-28.36-2.62-5.83-11.2-8-24.16-6.1a63.57 63.57 0 0 0-47.79 34.26 1.5 1.5 0 0 1-2.76-1.19c.14-.3 13.57-30.7 50.12-36 18.46-2.7 25.05 2.77 27.32 7.84 3.81 8.48-2.1 21.59-14.36 31.88-18.63 15.65-28.1 42.89-25.93 51.12a1.5 1.5 0 0 1-1.07 1.83 1.74 1.74 0 0 1-.39.01Z" style="fill:#1d1e1b"/><path d="M298.42 512.53a2.5 2.5 0 0 1-2-4c.9-1.21 22.46-29.6 53.56-25.43a2.5 2.5 0 1 1-.66 5c-28.15-3.77-48.69 23.19-48.9 23.46a2.5 2.5 0 0 1-2 .97Z" style="fill:#fff"/><g data-name="hand"><path d="M705.5 717.5s-126.31-49-67-99.15L622.23 566a16 16 0 0 1 11.27-20.36c9.44-2.38 22.92.64 38.77 22.65 0 0 22.8-9.12 42.22 2.55 0 0 15.18-14.61 44.35 15.7s42.66 82.96 42.66 82.96Z" style="fill:#ffcdb2"/><path d="m705.58 719.14-.62-.24c-3.15-1.22-77.16-30.34-83.38-67.48-2-11.8 3.15-23.09 15.22-33.57l-16-51.37a17.76 17.76 0 0 1 1.45-13.9 17.17 17.17 0 0 1 10.89-8.35c9-2.27 23.14-.19 39.67 22.3 4.82-1.67 24.17-7.32 41.55 2.54a18.88 18.88 0 0 1 11.4-3.21c10.28.19 21.78 6.81 34.16 19.68 29.12 30.25 42.9 83.06 43 83.59l.3 1.17Zm-66.67-172.63a21 21 0 0 0-5 .62 14.23 14.23 0 0 0-9 6.92 14.76 14.76 0 0 0-1.21 11.54l16.6 53.26-.76.64c-11.75 9.93-16.78 20.51-15 31.43 5.65 33.76 73.68 62 80.89 64.94l94.3-47.15c-2.19-7.9-15.79-53.9-42-81.09-27.64-28.72-41.65-16.2-42.23-15.65l-.83.78-1-.58c-18.53-11.14-40.68-2.54-40.9-2.45l-1.09.44-.68-.95c-10.72-14.96-21.73-22.7-32.09-22.7Z" style="fill:#1d1e1b"/><path d="M672 568.3s12 13.11 21.84 41.52" style="fill:#ffcdb2"/><path d="M693.86 611.32a1.49 1.49 0 0 1-1.41-1c-9.6-27.73-21.42-40.86-21.54-41a1.5 1.5 0 0 1 2.21-2c.5.55 12.34 13.66 22.16 42a1.5 1.5 0 0 1-.93 1.91 1.37 1.37 0 0 1-.49.09Z" style="fill:#1d1e1b"/><path d="M714.62 570.49s12 9.83 22.94 36" style="fill:#ffcdb2"/><path d="M737.56 608a1.49 1.49 0 0 1-1.38-.93c-10.62-25.48-22.39-35.36-22.51-35.46a1.5 1.5 0 1 1 1.9-2.32c.5.41 12.43 10.37 23.38 36.63a1.51 1.51 0 0 1-1.39 2.08Z" style="fill:#1d1e1b"/><path style="fill:#ffcdb2" d="m638.12 617.03 8.77 22.28"/><path d="M646.89 640.81a1.49 1.49 0 0 1-1.39-.95l-8.78-22.28a1.5 1.5 0 1 1 2.79-1.1l8.78 22.28a1.51 1.51 0 0 1-.85 2 1.49 1.49 0 0 1-.55.05Z" style="fill:#1d1e1b"/><path d="M682.94 609a2.49 2.49 0 0 1-2.27-1.46c-16.9-37-35-49.08-35.14-49.2a2.5 2.5 0 0 1 2.72-4.19c.78.51 19.38 12.85 37 51.31a2.49 2.49 0 0 1-1.23 3.31 2.42 2.42 0 0 1-1.08.23Zm43.69 0a2.5 2.5 0 0 1-2.4-1.83c-5.19-18.66-19.83-31.42-20-31.55a2.5 2.5 0 0 1 3.26-3.79c.65.55 15.93 13.83 21.53 34a2.5 2.5 0 0 1-2.41 3.17Z" style="fill:#fff"/><path d="m802.67 669.55 14.89 29.87s36.94-12.92 67.94 38.08c0 0-49 74-175 125 0 0-31-65 4.5-109.14l-8.69-35.78Z" style="fill:#ffad00"/><path d="M710.5 864a1.5 1.5 0 0 1-1.35-.85A153 153 0 0 1 698 824.71c-4.36-28.61 1-53.38 15.41-71.71l-8.51-35.06a1.49 1.49 0 0 1 .79-1.7l96.36-48a1.5 1.5 0 0 1 2 .67l14.33 28.75a46.16 46.16 0 0 1 21.91.24c12.23 2.94 30.24 12.06 46.52 38.85a1.51 1.51 0 0 1 0 1.61c-.12.18-12.68 18.95-40.5 43.67-25.64 22.77-69.9 55.47-135.19 81.89a1.55 1.55 0 0 1-.62.08Zm-2.45-145.61 8.41 34.61a1.53 1.53 0 0 1-.29 1.3c-31.77 39.51-8.93 97-4.89 106.26 64.09-26.14 107.6-58.28 132.87-80.72 24.39-21.64 36.91-38.62 39.56-42.39-15.55-25.16-32.46-33.81-44-36.61-12.57-3.07-21.6 0-21.69 0a1.49 1.49 0 0 1-1.83-.75L802 671.56Z" style="fill:#1d1d1b"/><circle cx="737.87" cy="790.66" r="9.44" style="fill:#ffc140"/><circle cx="831.87" cy="761.66" r="9.44" style="fill:#ffc140"/><path d="m716.86 752.89-8.4-34.61 93.24-46.48 14.36 28.81c-2.35 4.22-28.6 48.25-99.31 52.36Z" style="fill:#e89d00"/></g><g data-name="geolocation"><path d="M673.1 179.92a79 79 0 0 0-74.26 83.65C600.92 298.82 658 391 679.91 425.16a8.8 8.8 0 0 0 15.34-.89c17.74-36.53 63.56-134.66 61.47-169.91a79.21 79.21 0 0 0-83.62-74.44Zm6.77 114.35a40.34 40.34 0 1 1 37.83-42.61 40.36 40.36 0 0 1-37.83 42.61Z" style="fill:#ffad00"/><path d="M687.31 430.73a10.19 10.19 0 0 1-8.66-4.76c-23.75-37.07-79.23-127.08-81.31-162.31A80.55 80.55 0 0 1 673 178.43l.08 1.49-.08-1.49a80.79 80.79 0 0 1 85.2 75.85c2.08 35.22-42.4 131.07-61.62 170.64a10.2 10.2 0 0 1-8.66 5.79Zm-9.56-249.44c-1.51 0-3 0-4.56.13a77.56 77.56 0 0 0-72.86 82.07c2 34.51 57.22 124 80.85 160.86a7.3 7.3 0 0 0 12.72-.74C713 384.25 757.27 289 755.22 254.45a77.81 77.81 0 0 0-77.47-73.16Zm-.25 114.54a41.86 41.86 0 0 1-31.25-69.63 41.44 41.44 0 0 1 28.77-14 41.86 41.86 0 0 1 33.7 69.57A41.43 41.43 0 0 1 680 295.76c-.87.05-1.69.07-2.5.07Zm2.37-1.56Zm-2.4-79.1c-.76 0-1.51 0-2.28.07a38.77 38.77 0 0 0-36.42 41 38.89 38.89 0 0 0 41 36.51 38.77 38.77 0 0 0 36.42-41 38.91 38.91 0 0 0-38.72-36.58Zm46.07-34.4a2 2 0 0 1-1.49-.66c-19.28-21.47-53.39-14.37-53.73-14.29a2 2 0 1 1-.85-3.91c1.49-.33 36.75-7.66 57.56 15.53a2 2 0 0 1-.15 2.82 2 2 0 0 1-1.34.51Z" style="fill:#1d1d1b"/><path d="M716.34 349.49a3 3 0 0 1-2.5-4.67c19.21-28.78 26.36-67.28 26.43-67.66a3 3 0 1 1 5.91 1.07c-.3 1.62-7.45 40.11-27.35 69.92a3 3 0 0 1-2.49 1.34ZM621 222.38a3 3 0 0 1-2.55-4.57c.82-1.33 20.58-32.7 58.93-31.51a3 3 0 0 1-.09 6h-.1c-34.81-1.08-53.45 28.36-53.63 28.66a3 3 0 0 1-2.56 1.42Z" style="fill:#fff"/></g><path d="M747 629.5a1.5 1.5 0 0 1-.63-2.86c40.87-18.9 62.65-52.33 73.72-77 12-26.85 14.39-49.52 14.42-49.75a1.5 1.5 0 0 1 3 .3c0 .23-2.41 23.31-14.62 50.59-11.28 25.21-33.49 59.31-75.24 78.62a1.41 1.41 0 0 1-.65.1ZM374.5 886.25a1.47 1.47 0 0 1-.36 0c-69.84-17-134.12-47.69-185.89-88.7s-90.36-91.89-111.38-147a1.5 1.5 0 1 1 2.8-1.07c42.67 111.78 153 199.19 295.18 233.82a1.5 1.5 0 0 1-.35 3Zm290.42-6.56a1.5 1.5 0 0 1-.43-2.94C794.36 838.5 895.6 753.54 935.33 649.47a1.5 1.5 0 1 1 2.8 1.07c-19.77 51.79-55.25 100.14-102.59 139.81-47.13 39.49-106 70.37-170.2 89.28a1.52 1.52 0 0 1-.42.06ZM403.5 924h-.1c-62.24-4.15-106.73-21.14-133.08-34.67-28.64-14.68-42.31-28.2-42.88-28.77a1.5 1.5 0 0 1 2.12-2.12c.14.14 14 13.82 42.27 28.3C297.91 900.1 342 916.89 403.6 921a1.5 1.5 0 0 1-.1 3Zm494-256a1.5 1.5 0 0 1-1.14-2.48C932.58 623.43 935 557.12 935 556.46a1.5 1.5 0 0 1 3 .08c0 .68-2.44 68-39.36 110.94a1.52 1.52 0 0 1-1.14.52Zm-135-103a1.5 1.5 0 0 1-.86-2.73c22.29-15.51 32.32-48.86 32.42-49.19a1.5 1.5 0 1 1 2.88.84c-.42 1.41-10.42 34.7-33.58 50.81a1.51 1.51 0 0 1-.86.27Z" style="fill:#1d1d1b" data-name="line"/></g></g></svg>